<mxfile host="app.diagrams.net" agent="Mozilla/5.0 (Windows NT 10.0; Win64; x64) AppleWebKit/537.36 (KHTML, like Gecko) Chrome/129.0.0.0 Safari/537.36" version="24.7.17">
  <diagram name="Lapa-1" id="gYCxuFjREwTpURTEH_b0">
    <mxGraphModel dx="1434" dy="772" grid="1" gridSize="10" guides="1" tooltips="1" connect="1" arrows="1" fold="1" page="1" pageScale="1" pageWidth="827" pageHeight="1169" math="0" shadow="0">
      <root>
        <mxCell id="0" />
        <mxCell id="1" parent="0" />
        <mxCell id="hdvIO45Ck_3Dufj-_lpb-15" value="" style="edgeStyle=orthogonalEdgeStyle;rounded=0;orthogonalLoop=1;jettySize=auto;html=1;" parent="1" source="hdvIO45Ck_3Dufj-_lpb-1" target="hdvIO45Ck_3Dufj-_lpb-14" edge="1">
          <mxGeometry relative="1" as="geometry" />
        </mxCell>
        <mxCell id="hdvIO45Ck_3Dufj-_lpb-1" value="Start" style="ellipse;whiteSpace=wrap;html=1;aspect=fixed;" parent="1" vertex="1">
          <mxGeometry x="374" y="10" width="80" height="80" as="geometry" />
        </mxCell>
        <mxCell id="hdvIO45Ck_3Dufj-_lpb-19" value="" style="edgeStyle=orthogonalEdgeStyle;rounded=0;orthogonalLoop=1;jettySize=auto;html=1;" parent="1" source="hdvIO45Ck_3Dufj-_lpb-14" target="hdvIO45Ck_3Dufj-_lpb-18" edge="1">
          <mxGeometry relative="1" as="geometry" />
        </mxCell>
        <mxCell id="hdvIO45Ck_3Dufj-_lpb-23" value="Nē" style="edgeLabel;html=1;align=center;verticalAlign=middle;resizable=0;points=[];" parent="hdvIO45Ck_3Dufj-_lpb-19" vertex="1" connectable="0">
          <mxGeometry x="-0.1268" y="9" relative="1" as="geometry">
            <mxPoint as="offset" />
          </mxGeometry>
        </mxCell>
        <mxCell id="hdvIO45Ck_3Dufj-_lpb-21" value="" style="edgeStyle=orthogonalEdgeStyle;rounded=0;orthogonalLoop=1;jettySize=auto;html=1;" parent="1" source="hdvIO45Ck_3Dufj-_lpb-14" target="hdvIO45Ck_3Dufj-_lpb-20" edge="1">
          <mxGeometry relative="1" as="geometry" />
        </mxCell>
        <mxCell id="hdvIO45Ck_3Dufj-_lpb-22" value="Jā" style="edgeLabel;html=1;align=center;verticalAlign=middle;resizable=0;points=[];" parent="hdvIO45Ck_3Dufj-_lpb-21" vertex="1" connectable="0">
          <mxGeometry x="-0.2" y="-8" relative="1" as="geometry">
            <mxPoint x="-6" y="8" as="offset" />
          </mxGeometry>
        </mxCell>
        <mxCell id="hdvIO45Ck_3Dufj-_lpb-14" value="input Vai jus vēleties spēlet ?" style="rhombus;whiteSpace=wrap;html=1;" parent="1" vertex="1">
          <mxGeometry x="359" y="110" width="110" height="110" as="geometry" />
        </mxCell>
        <mxCell id="hdvIO45Ck_3Dufj-_lpb-25" value="" style="edgeStyle=orthogonalEdgeStyle;rounded=0;orthogonalLoop=1;jettySize=auto;html=1;" parent="1" source="hdvIO45Ck_3Dufj-_lpb-18" target="hdvIO45Ck_3Dufj-_lpb-24" edge="1">
          <mxGeometry relative="1" as="geometry" />
        </mxCell>
        <mxCell id="hdvIO45Ck_3Dufj-_lpb-18" value="print(&quot;Uz redzēšanos&quot;)" style="whiteSpace=wrap;html=1;" parent="1" vertex="1">
          <mxGeometry x="540" y="135" width="120" height="60" as="geometry" />
        </mxCell>
        <mxCell id="Ak2SBpWxDnkleXrZ2XL--2" style="edgeStyle=orthogonalEdgeStyle;rounded=0;orthogonalLoop=1;jettySize=auto;html=1;" parent="1" source="hdvIO45Ck_3Dufj-_lpb-20" target="Ak2SBpWxDnkleXrZ2XL--1" edge="1">
          <mxGeometry relative="1" as="geometry" />
        </mxCell>
        <mxCell id="hdvIO45Ck_3Dufj-_lpb-20" value="input(&quot;Jusu uzdēvums būs atbildēt uz 10 jautajumus un jus vār uzvarēt automobilu. Uzpiest enter lai turpināt&quot;)" style="whiteSpace=wrap;html=1;" parent="1" vertex="1">
          <mxGeometry x="314" y="300" width="200" height="150" as="geometry" />
        </mxCell>
        <mxCell id="hdvIO45Ck_3Dufj-_lpb-24" value="End" style="triangle;whiteSpace=wrap;html=1;" parent="1" vertex="1">
          <mxGeometry x="710" y="125" width="60" height="80" as="geometry" />
        </mxCell>
        <mxCell id="Ak2SBpWxDnkleXrZ2XL--4" style="edgeStyle=orthogonalEdgeStyle;rounded=0;orthogonalLoop=1;jettySize=auto;html=1;" parent="1" source="Ak2SBpWxDnkleXrZ2XL--1" target="Ak2SBpWxDnkleXrZ2XL--3" edge="1">
          <mxGeometry relative="1" as="geometry" />
        </mxCell>
        <mxCell id="Ak2SBpWxDnkleXrZ2XL--1" value="question=choice(all_questions)" style="rounded=0;whiteSpace=wrap;html=1;" parent="1" vertex="1">
          <mxGeometry x="311" y="520" width="206" height="75" as="geometry" />
        </mxCell>
        <mxCell id="Ak2SBpWxDnkleXrZ2XL--6" style="edgeStyle=orthogonalEdgeStyle;rounded=0;orthogonalLoop=1;jettySize=auto;html=1;" parent="1" source="Ak2SBpWxDnkleXrZ2XL--3" target="Ak2SBpWxDnkleXrZ2XL--5" edge="1">
          <mxGeometry relative="1" as="geometry" />
        </mxCell>
        <mxCell id="Ak2SBpWxDnkleXrZ2XL--3" value="ans=input(f&quot;Jūsu jautājums ir {question[&#39;text&#39;]\nAtbildes varianti ir\n{question[&#39;answers&#39;]}\nJūsu atbilde ir: &quot;)" style="rounded=0;whiteSpace=wrap;html=1;" parent="1" vertex="1">
          <mxGeometry x="311" y="630" width="206" height="60" as="geometry" />
        </mxCell>
        <mxCell id="Ak2SBpWxDnkleXrZ2XL--9" value="" style="edgeStyle=orthogonalEdgeStyle;rounded=0;orthogonalLoop=1;jettySize=auto;html=1;" parent="1" source="Ak2SBpWxDnkleXrZ2XL--5" target="Ak2SBpWxDnkleXrZ2XL--7" edge="1">
          <mxGeometry relative="1" as="geometry" />
        </mxCell>
        <mxCell id="Ak2SBpWxDnkleXrZ2XL--11" value="Nē" style="edgeLabel;html=1;align=center;verticalAlign=middle;resizable=0;points=[];" parent="Ak2SBpWxDnkleXrZ2XL--9" vertex="1" connectable="0">
          <mxGeometry x="-0.1688" y="-1" relative="1" as="geometry">
            <mxPoint x="-5" y="14" as="offset" />
          </mxGeometry>
        </mxCell>
        <mxCell id="Ak2SBpWxDnkleXrZ2XL--13" style="edgeStyle=orthogonalEdgeStyle;rounded=0;orthogonalLoop=1;jettySize=auto;html=1;entryX=0.5;entryY=0;entryDx=0;entryDy=0;" parent="1" source="Ak2SBpWxDnkleXrZ2XL--5" target="Ak2SBpWxDnkleXrZ2XL--12" edge="1">
          <mxGeometry relative="1" as="geometry" />
        </mxCell>
        <mxCell id="Ak2SBpWxDnkleXrZ2XL--5" value="&lt;div&gt;ans==question[&quot;right_answer&quot;]&lt;/div&gt;Atbilde ir pareiza" style="rhombus;whiteSpace=wrap;html=1;" parent="1" vertex="1">
          <mxGeometry x="314" y="730" width="199" height="130" as="geometry" />
        </mxCell>
        <mxCell id="Ak2SBpWxDnkleXrZ2XL--10" style="edgeStyle=orthogonalEdgeStyle;rounded=0;orthogonalLoop=1;jettySize=auto;html=1;entryX=0;entryY=0.5;entryDx=0;entryDy=0;" parent="1" source="Ak2SBpWxDnkleXrZ2XL--7" target="Ak2SBpWxDnkleXrZ2XL--8" edge="1">
          <mxGeometry relative="1" as="geometry" />
        </mxCell>
        <mxCell id="Ak2SBpWxDnkleXrZ2XL--7" value="print(&quot;Jūs zaudējāt&quot;)" style="rounded=0;whiteSpace=wrap;html=1;" parent="1" vertex="1">
          <mxGeometry x="590" y="765" width="120" height="60" as="geometry" />
        </mxCell>
        <mxCell id="Ak2SBpWxDnkleXrZ2XL--8" value="END" style="triangle;whiteSpace=wrap;html=1;" parent="1" vertex="1">
          <mxGeometry x="760" y="755" width="60" height="80" as="geometry" />
        </mxCell>
        <mxCell id="Hn785Kom0CwV8REAGcmY-2" style="edgeStyle=orthogonalEdgeStyle;rounded=0;orthogonalLoop=1;jettySize=auto;html=1;entryX=0.5;entryY=0;entryDx=0;entryDy=0;" edge="1" parent="1" source="Ak2SBpWxDnkleXrZ2XL--12" target="Hn785Kom0CwV8REAGcmY-1">
          <mxGeometry relative="1" as="geometry" />
        </mxCell>
        <mxCell id="Ak2SBpWxDnkleXrZ2XL--12" value="input(f&quot;Vai jūs gribāt turpināt vai ņemt balvu({balvas[i]})&quot;" style="rounded=0;whiteSpace=wrap;html=1;" parent="1" vertex="1">
          <mxGeometry x="316" y="890" width="196" height="60" as="geometry" />
        </mxCell>
        <mxCell id="Hn785Kom0CwV8REAGcmY-4" style="edgeStyle=orthogonalEdgeStyle;rounded=0;orthogonalLoop=1;jettySize=auto;html=1;exitX=1;exitY=0.5;exitDx=0;exitDy=0;entryX=0;entryY=0.5;entryDx=0;entryDy=0;" edge="1" parent="1" source="Hn785Kom0CwV8REAGcmY-1" target="Hn785Kom0CwV8REAGcmY-3">
          <mxGeometry relative="1" as="geometry" />
        </mxCell>
        <mxCell id="Hn785Kom0CwV8REAGcmY-5" value="Jā" style="edgeLabel;html=1;align=center;verticalAlign=middle;resizable=0;points=[];" vertex="1" connectable="0" parent="Hn785Kom0CwV8REAGcmY-4">
          <mxGeometry x="0.0291" relative="1" as="geometry">
            <mxPoint as="offset" />
          </mxGeometry>
        </mxCell>
        <mxCell id="Hn785Kom0CwV8REAGcmY-1" value="Ņemsiet balvu" style="rhombus;whiteSpace=wrap;html=1;" vertex="1" parent="1">
          <mxGeometry x="331" y="990" width="166" height="90" as="geometry" />
        </mxCell>
        <mxCell id="Hn785Kom0CwV8REAGcmY-7" style="edgeStyle=orthogonalEdgeStyle;rounded=0;orthogonalLoop=1;jettySize=auto;html=1;entryX=0;entryY=0.5;entryDx=0;entryDy=0;" edge="1" parent="1" source="Hn785Kom0CwV8REAGcmY-3" target="Hn785Kom0CwV8REAGcmY-6">
          <mxGeometry relative="1" as="geometry" />
        </mxCell>
        <mxCell id="Hn785Kom0CwV8REAGcmY-3" value="print(f&quot;Jūsu balva ir {balvas[i]}. Uz redzēšanos.&quot;)" style="rounded=0;whiteSpace=wrap;html=1;" vertex="1" parent="1">
          <mxGeometry x="600" y="1005" width="120" height="60" as="geometry" />
        </mxCell>
        <mxCell id="Hn785Kom0CwV8REAGcmY-6" value="END" style="triangle;whiteSpace=wrap;html=1;" vertex="1" parent="1">
          <mxGeometry x="760" y="995" width="60" height="80" as="geometry" />
        </mxCell>
      </root>
    </mxGraphModel>
  </diagram>
</mxfile>
